<svg width="124" height="32" viewBox="0 0 124 32" fill="none" xmlns="http://www.w3.org/2000/svg">
<path d="M12.3787 15.4118L12.4059 15.4333H12.4406H15.334C16.8988 15.4333 18.3994 16.0549 19.5059 17.1614C20.5888 18.2443 21.2073 19.7047 21.2331 21.2333H11.9993H11.8992L11.8993 21.3334L11.9007 22.6668L11.9008 22.7667H12.0007H22.6673H22.7673V22.6667V21.3333V21.333C22.7632 19.9559 22.382 18.6074 21.6666 17.4333H25.334C26.5755 17.433 27.7916 17.7846 28.8413 18.4473C29.8739 19.0992 30.704 20.0259 31.2386 21.1229C28.1011 25.232 23.0425 27.9 17.334 27.9C13.6923 27.9 10.608 27.1272 8.10065 25.7738V13.5441C9.663 13.7879 11.1367 14.431 12.3787 15.4118ZM5.33397 12.1C5.33398 12.1 5.33398 12.1 5.33398 12.1C5.63606 12.1 5.92762 12.2109 6.15336 12.4117C6.3784 12.6118 6.52243 12.8873 6.55834 13.1862L6.56732 13.3363V25.3333C6.56732 25.6604 6.43738 25.9741 6.20608 26.2054C5.97479 26.4367 5.66109 26.5667 5.33398 26.5667H2.66732C2.34022 26.5667 2.02651 26.4367 1.79522 26.2054C1.56392 25.9741 1.43398 25.6604 1.43398 25.3333V13.3333C1.43398 13.0062 1.56392 12.6925 1.79522 12.4612C2.02651 12.2299 2.34022 12.1 2.66732 12.1H5.33397Z" fill="#6B6B9A" stroke="white" stroke-width="0.2"/>
<path d="M18.6671 5.2401L18.1951 4.76677C17.8861 4.45497 17.5186 4.20728 17.1136 4.03791C16.7086 3.86853 16.2742 3.78082 15.8352 3.77979C15.3963 3.77877 14.9614 3.86446 14.5557 4.03195C14.1499 4.19943 13.7812 4.44541 13.4708 4.75576C13.1603 5.06612 12.9143 5.43473 12.7467 5.84044C12.5791 6.24616 12.4932 6.68098 12.4941 7.11994C12.495 7.55891 12.5826 7.99338 12.7519 8.3984C12.9212 8.80342 13.1687 9.17102 13.4805 9.4801L18.6671 14.6668L23.8525 9.48277C24.1643 9.17378 24.4119 8.80625 24.5813 8.40127C24.7507 7.9963 24.8384 7.56185 24.8394 7.12289C24.8405 6.68392 24.7548 6.24908 24.5873 5.84332C24.4198 5.43756 24.1738 5.06887 23.8635 4.75843C23.5531 4.44799 23.1845 4.20191 22.7788 4.03431C22.3731 3.86671 21.9382 3.7809 21.4993 3.7818C21.0603 3.78269 20.6259 3.87029 20.2208 4.03955C19.8158 4.2088 19.4482 4.4564 19.1391 4.7681L18.6671 5.2401Z" fill="#1A1A43"/>
<path d="M53.816 25.336C51.864 25.336 50.224 24.912 48.896 24.064C47.568 23.2 46.576 22.048 45.92 20.608C45.264 19.168 44.936 17.576 44.936 15.832C44.936 14.088 45.264 12.504 45.92 11.08C46.576 9.64 47.568 8.496 48.896 7.648C50.224 6.784 51.864 6.352 53.816 6.352C56.024 6.352 57.808 6.904 59.168 8.008C60.528 9.112 61.336 10.584 61.592 12.424H57.824C57.664 11.464 57.216 10.728 56.48 10.216C55.744 9.704 54.824 9.448 53.72 9.448C52.072 9.448 50.792 10.032 49.88 11.2C48.984 12.352 48.536 13.896 48.536 15.832C48.536 17.784 48.984 19.344 49.88 20.512C50.792 21.664 52.072 22.24 53.72 22.24C54.84 22.24 55.76 21.976 56.48 21.448C57.2 20.904 57.648 20.104 57.824 19.048H61.592C61.336 20.984 60.528 22.52 59.168 23.656C57.824 24.776 56.04 25.336 53.816 25.336ZM62.9264 25V6.688H66.1664V13.24C66.6944 12.504 67.2464 11.992 67.8224 11.704C68.3984 11.4 69.0624 11.248 69.8144 11.248C71.9264 11.248 73.3264 12 74.0144 13.504C74.2704 14.032 74.4304 14.568 74.4944 15.112C74.5584 15.656 74.5904 16.368 74.5904 17.248V25H71.3504V17.2C71.3504 16.512 71.2944 15.96 71.1824 15.544C71.0864 15.112 70.9264 14.768 70.7024 14.512C70.3184 14.112 69.7504 13.912 68.9984 13.912C68.0704 13.912 67.3824 14.184 66.9344 14.728C66.6624 15.048 66.4624 15.472 66.3344 16C66.2224 16.528 66.1664 17.24 66.1664 18.136V25H62.9264ZM80.3617 25.264C79.0497 25.264 77.9857 24.92 77.1697 24.232C76.3537 23.528 75.9457 22.552 75.9457 21.304C75.9457 19.96 76.4577 18.936 77.4817 18.232C78.2177 17.72 79.2657 17.336 80.6257 17.08L84.6337 16.336C84.6017 15.504 84.3857 14.872 83.9857 14.44C83.5857 14.008 82.9857 13.792 82.1857 13.792C81.5617 13.792 81.0097 13.976 80.5297 14.344C80.0657 14.712 79.7777 15.208 79.6657 15.832H76.4497C76.6737 14.344 77.3297 13.208 78.4177 12.424C79.5057 11.64 80.7697 11.248 82.2097 11.248C83.0257 11.248 83.7857 11.368 84.4897 11.608C85.1937 11.832 85.7937 12.168 86.2897 12.616C86.7857 13.048 87.1457 13.552 87.3697 14.128C87.5937 14.704 87.7297 15.28 87.7777 15.856C87.8417 16.432 87.8737 17.144 87.8737 17.992V25H84.6337V23.176C84.2977 23.768 83.8897 24.216 83.4097 24.52C82.6577 25.016 81.6417 25.264 80.3617 25.264ZM81.1537 22.72C81.7937 22.72 82.3697 22.592 82.8817 22.336C83.5537 22 84.0177 21.552 84.2737 20.992C84.5297 20.432 84.6737 19.672 84.7057 18.712L81.4897 19.36C80.6257 19.52 80.0017 19.776 79.6177 20.128C79.3297 20.416 79.1857 20.768 79.1857 21.184C79.1857 21.68 79.3617 22.064 79.7137 22.336C80.0817 22.592 80.5617 22.72 81.1537 22.72ZM89.6934 25V11.536H92.9334V13.144C93.4294 12.456 93.9814 11.968 94.5894 11.68C95.2134 11.392 95.9414 11.248 96.7734 11.248H97.1574V14.368H96.4134C95.3894 14.368 94.5894 14.64 94.0134 15.184C93.6454 15.552 93.3734 16.024 93.1974 16.6C93.0214 17.16 92.9334 17.88 92.9334 18.76V25H89.6934ZM101.348 25H98.1084V11.536H101.348V25ZM99.7404 10.048C99.1804 10.048 98.7084 9.88 98.3244 9.544C97.9404 9.208 97.7484 8.76 97.7484 8.2C97.7484 7.672 97.9404 7.232 98.3244 6.88C98.7084 6.528 99.1804 6.352 99.7404 6.352C100.284 6.352 100.748 6.528 101.132 6.88C101.532 7.232 101.732 7.672 101.732 8.2C101.732 8.744 101.54 9.192 101.156 9.544C100.772 9.88 100.3 10.048 99.7404 10.048ZM107.56 25C105.464 25 104.416 24.016 104.416 22.048V14.128H102.424V11.536H104.416V6.688H107.656V11.536H110.248V14.128H107.656V21.064C107.656 21.48 107.72 21.792 107.848 22C107.992 22.208 108.296 22.312 108.76 22.312H110.224V25H107.56ZM111.779 29.848V27.112H113.243C113.723 27.112 114.083 27.04 114.323 26.896C114.579 26.768 114.795 26.472 114.971 26.008L115.331 25.048L110.363 11.536H113.867L117.011 21.424L119.843 11.536H123.323L118.091 26.584C117.675 27.784 117.163 28.624 116.555 29.104C115.963 29.6 115.115 29.848 114.011 29.848H111.779Z" fill="#1A1A43"/>
</svg>
